<svg xmlns="http://www.w3.org/2000/svg" viewBox="0 0 1920 1080"><defs><style>.cls-1,.cls-2{fill:#005daa;}.cls-1{opacity:0;}.cls-3{fill:#efe000;}.cls-4{fill:#191919;}.cls-5{fill:#009445;}.cls-6{fill:none;}</style></defs><g id="Layer_2" data-name="Layer 2"><g id="Layer_2-2" data-name="Layer 2"><rect class="cls-1" width="1920" height="1080"/><path class="cls-2" d="M490.57,158.47A1128.34,1128.34,0,0,1,501.72,0H0V1080H975.48C682.6,878.44,490.57,540.89,490.57,158.47Z"/><path class="cls-3" d="M490.57,158.47A1127.86,1127.86,0,0,1,501.64.58C418.1,157.2,370.72,336,370.72,525.94c0,201.61,53.38,390.74,146.76,554.06h458C682.6,878.44,490.57,540.89,490.57,158.47Z"/><path class="cls-3" d="M490.57,158.47A1127.86,1127.86,0,0,1,501.64.58C418.1,157.2,370.72,336,370.72,525.94c0,201.61,53.38,390.74,146.76,554.06h458C682.6,878.44,490.57,540.89,490.57,158.47Z"/><path class="cls-4" d="M490.57,158.47A1128.19,1128.19,0,0,1,501.58,1a1114.73,1114.73,0,0,0-78.93,413.35c0,249.39,81.67,479.7,219.72,665.66H975.48C682.6,878.44,490.57,540.89,490.57,158.47Z"/><path class="cls-5" d="M490.57,158.47a1128.12,1128.12,0,0,1,11-157.14,1119.61,1119.61,0,0,0-35.87,281.9c0,311.92,127.77,594,333.81,796.77h176C682.6,878.44,490.57,540.89,490.57,158.47Z"/><path class="cls-6" d="M490.57,158.47c0,382.42,192,720,484.91,921.53H0V0H501.72A1128.34,1128.34,0,0,0,490.57,158.47Z"/></g></g></svg>