<?xml version="1.0" encoding="iso-8859-1"?>
<!-- Generator: Adobe Illustrator 19.0.0, SVG Export Plug-In . SVG Version: 6.00 Build 0)  -->
<svg version="1.1" id="Layer_1" xmlns="http://www.w3.org/2000/svg" xmlns:xlink="http://www.w3.org/1999/xlink" x="0px" y="0px"
	 viewBox="0 0 511.999 511.999" style="enable-background:new 0 0 511.999 511.999;" xml:space="preserve">
<g>
	<g>
		<path d="M508.827,189.755l-81.231-61.624c-3.527-2.675-8.554-1.986-11.232,1.541c-2.675,3.527-1.986,8.555,1.541,11.232
			l62.245,47.22h-23.199c-4.427,0-8.017,3.589-8.017,8.017v299.824H63.064v-51.841c0-4.427-3.589-8.017-8.017-8.017
			c-4.427,0-8.017,3.589-8.017,8.017v59.858c0,4.427,3.589,8.017,8.017,8.017h401.903c4.427,0,8.017-3.589,8.017-8.017V204.159
			h39.015c3.443,0,6.501-2.198,7.598-5.461C512.679,195.435,511.57,191.835,508.827,189.755z"/>
	</g>
</g>
<g>
	<g>
		<path d="M393.385,102.178L260.845,1.63c-2.865-2.173-6.826-2.173-9.689,0l-98.304,74.575V50.238h9.086
			c4.427,0,8.017-3.589,8.017-8.017V8.017c0-4.427-3.589-8.017-8.017-8.017H42.221c-4.427,0-8.017,3.589-8.017,8.017v34.205
			c0,4.427,3.589,8.017,8.017,8.017h9.086v103L3.172,189.755c-2.743,2.08-3.851,5.68-2.753,8.942
			c1.098,3.263,4.156,5.461,7.598,5.461h39.015v197.21c0,4.427,3.589,8.017,8.017,8.017c4.427,0,8.017-3.589,8.017-8.017V196.142
			c0-4.427-3.589-8.017-8.017-8.017H31.849L255.999,18.079l127.695,96.871c3.526,2.674,8.555,1.987,11.232-1.541
			C397.602,109.882,396.912,104.854,393.385,102.178z M50.238,34.205V16.034H153.92v18.171H50.238z M136.818,88.368L67.34,141.075
			V50.238h69.478V88.368z"/>
	</g>
</g>
<g>
	<g>
		<path d="M405.644,401.903h-9.086v-61.461c0-10.366-7.276-19.446-17.102-22.734v-89.499c0-22.103-17.981-40.083-40.083-40.083
			H172.626c-22.102,0-40.083,17.981-40.083,40.083v89.499c-9.825,3.288-17.102,12.368-17.102,22.734v61.461h-9.086
			c-4.427,0-8.017,3.589-8.017,8.017v25.653c0,4.427,3.589,8.017,8.017,8.017h26.188v26.188c0,4.427,3.589,8.017,8.017,8.017h51.307
			c4.427,0,8.017-3.589,8.017-8.017V443.59h112.234v26.188c0,4.427,3.589,8.017,8.017,8.017h51.307c4.427,0,8.017-3.589,8.017-8.017
			V443.59h26.188c4.427,0,8.017-3.589,8.017-8.017V409.92C413.661,405.493,410.072,401.903,405.644,401.903z M148.576,228.209
			c0-13.262,10.788-24.05,24.05-24.05h166.747c13.262,0,24.05,10.788,24.05,24.05v88.184h-9.62v-78.564
			c0-13.036-11.503-24.05-25.119-24.05H183.315c-13.616,0-25.119,11.014-25.119,24.05v78.564h-9.62V228.209z M337.77,237.829v78.564
			h-163.54v-78.564c0-4.121,4.416-8.017,9.086-8.017h145.369C333.354,229.812,337.77,233.708,337.77,237.829z M131.474,340.442
			c0-4.121,4.416-8.017,9.086-8.017h230.88c4.67,0,9.086,3.896,9.086,8.017v61.461H131.474V340.442z M183.849,461.761h-35.273
			V443.59h35.273V461.761z M363.423,461.761H328.15V443.59h35.273V461.761z M397.627,427.557H114.371v-9.62h9.086h265.085h9.086
			V427.557z"/>
	</g>
</g>
<g>
	<g>
		<path d="M166.213,342.045c-13.851,0-25.119,11.268-25.119,25.119c0,13.851,11.268,25.119,25.119,25.119
			s25.119-11.268,25.119-25.119C191.331,353.314,180.063,342.045,166.213,342.045z M166.213,376.25c-5.01,0-9.086-4.076-9.086-9.086
			c0-5.01,4.076-9.086,9.086-9.086s9.086,4.076,9.086,9.086C175.298,372.174,171.222,376.25,166.213,376.25z"/>
	</g>
</g>
<g>
	<g>
		<path d="M345.786,342.045c-13.851,0-25.119,11.268-25.119,25.119c0,13.851,11.268,25.119,25.119,25.119
			s25.119-11.268,25.119-25.119C370.905,353.314,359.637,342.045,345.786,342.045z M345.786,376.25c-5.01,0-9.086-4.076-9.086-9.086
			c0-5.01,4.076-9.086,9.086-9.086c5.01,0,9.086,4.076,9.086,9.086C354.872,372.174,350.796,376.25,345.786,376.25z"/>
	</g>
</g>
<g>
	<g>
		<path d="M294.479,342.045h-76.96c-4.427,0-8.017,3.589-8.017,8.017s3.589,8.017,8.017,8.017h76.96
			c4.427,0,8.017-3.589,8.017-8.017S298.907,342.045,294.479,342.045z"/>
	</g>
</g>
<g>
	<g>
		<path d="M294.479,376.25h-76.96c-4.427,0-8.017,3.589-8.017,8.017s3.589,8.017,8.017,8.017h76.96c4.427,0,8.017-3.589,8.017-8.017
			S298.907,376.25,294.479,376.25z"/>
	</g>
</g>
<g>
	<g>
		<path d="M274.495,237.505c-3.131-3.131-8.207-3.131-11.337,0l-55.582,55.582c-3.131,3.131-3.131,8.207,0,11.337
			c1.565,1.565,3.617,2.348,5.668,2.348c2.051,0,4.103-0.782,5.668-2.348l55.582-55.582
			C277.626,245.712,277.626,240.635,274.495,237.505z"/>
	</g>
</g>
<g>
	<g>
		<path d="M283.046,263.158c-3.13-3.131-8.206-3.131-11.337,0l-25.653,25.653c-3.131,3.131-3.131,8.207,0,11.337
			c1.565,1.565,3.617,2.348,5.668,2.348c2.051,0,4.104-0.782,5.668-2.348l25.653-25.653
			C286.176,271.364,286.176,266.288,283.046,263.158z"/>
	</g>
</g>
<g>
</g>
<g>
</g>
<g>
</g>
<g>
</g>
<g>
</g>
<g>
</g>
<g>
</g>
<g>
</g>
<g>
</g>
<g>
</g>
<g>
</g>
<g>
</g>
<g>
</g>
<g>
</g>
<g>
</g>
</svg>
