<?xml version="1.0" encoding="iso-8859-1"?>
<!-- Generator: Adobe Illustrator 19.1.0, SVG Export Plug-In . SVG Version: 6.00 Build 0)  -->
<svg version="1.1" id="Capa_1" xmlns="http://www.w3.org/2000/svg" xmlns:xlink="http://www.w3.org/1999/xlink" x="0px" y="0px"
	 viewBox="0 0 485 485" style="enable-background:new 0 0 485 485;" xml:space="preserve">
<g>
	<path d="M264.892,0c-31.1,0-61,6.7-88.9,19.9c-35.4,16.5-65.4,42.5-86.8,75.3c-21.9,33.7-33.5,72.8-33.5,113.2v29l-38.1,72.8
		c-7,13.4-7.3,27.2-0.9,37.8c6.4,10.6,18.8,16.7,33.9,16.7h5.1v58.5c0,30,24.4,54.4,54.4,54.4c0.7,0,1.5-0.1,2.2-0.2l170.5-28.4
		c27-3.7,47.2-27,47.1-54.2v-99.7c40.1-6.5,70.9-41.4,70.9-83.4c0-46.6-37.9-84.5-84.5-84.5s-84.5,37.9-84.5,84.5
		c0,42.1,30.9,77,71.2,83.5V395c0.1,13.8-10.2,25.6-23.8,27.4c-0.2,0-0.3,0-0.5,0.1l-169.6,28c-14.6-0.5-26.4-12.6-26.4-27.4v-72
		c0-7.5-6-13.5-13.5-13.5h-18.7c-5.3,0-9.4-1.4-10.8-3.7c-1.4-2.3-0.7-6.6,1.7-11.3l39.7-75.7c1-1.9,1.5-4.1,1.5-6.3v-32.3
		c0-70.1,41.1-134.5,104.7-164h0.1c24.3-11.5,50.3-17.3,77.4-17.3c99.9,0,181.1,81.3,181.1,181.1c0,50.6-21.4,99.2-58.7,133.5
		c-2.8,2.6-4.4,6.2-4.4,9.9v62.2v57.8c0,7.5,6,13.5,13.5,13.5s13.5-6,13.5-13.5v-57.8v-56.3c19-18.4,34.1-39.9,44.9-64.1
		c12.1-26.9,18.2-55.5,18.2-85.2C472.992,93.4,379.592,0,264.892,0z M258.693,211.6c0-31.7,25.8-57.5,57.5-57.5s57.5,25.8,57.5,57.5
		s-25.8,57.5-57.5,57.5S258.693,243.3,258.693,211.6z"/>
</g>
<g>
</g>
<g>
</g>
<g>
</g>
<g>
</g>
<g>
</g>
<g>
</g>
<g>
</g>
<g>
</g>
<g>
</g>
<g>
</g>
<g>
</g>
<g>
</g>
<g>
</g>
<g>
</g>
<g>
</g>
</svg>
