<svg id="Capa_1" enable-background="new 0 0 512 512" height="15" viewBox="0 0 512 512" width="15" xmlns="http://www.w3.org/2000/svg"><g><g><path d="m504.04 129.232c13.708-35.385-6.918-85.287-55.838-113.401-2.932-1.685-6.627.306-6.794 3.684-.318 6.435-1.522 14.153-4.747 22.261-4.853 12.2-10.795 16.518-17.355 26.543-8.425 12.875-16.038 32.359-14.633 48.322 3.039 34.518 48.328 53.737 51.725 55.128 9.358-3.564 37.2-15.582 47.642-42.537z" fill="#b3e59f"/></g><path d="m468.679 30.172c22.548 26.715 30.062 59.019 20.361 84.06-4.15 10.711-11.047 19.064-18.44 25.465-15.805 13.683-39.185 14.357-55.701 1.541-.124-.096-.248-.193-.372-.29 14.366 19.195 39.381 29.801 41.872 30.821 9.357-3.564 37.199-15.582 47.641-42.537 11.606-29.96-1.408-70.322-35.361-99.06z" fill="#95d6a4"/><path d="m455.26 142.592c-2.285-4.18-4.913-8.181-7.874-11.894-4.489-5.628-9.715-10.661-15.534-14.958-3.382-2.497-4.098-7.263-1.601-10.645s7.262-4.097 10.645-1.601c5.668 4.186 10.852 8.971 15.478 14.247-.375-14.206-2.478-28.346-6.293-42.232-1.113-4.054 1.27-8.242 5.323-9.356 4.055-1.113 8.242 1.27 9.356 5.323 2.726 9.922 4.639 19.966 5.75 30.072l3.364-3.97c2.718-3.207 7.522-3.603 10.728-.885 3.207 2.718 3.603 7.521.885 10.728l-13.845 16.336c-.036 4.922-.251 9.849-.669 14.774-2.452 28.893-11.712 57.469-26.777 82.642-2.18 3.642-6.883 4.751-10.44 2.622-3.607-2.159-4.781-6.833-2.622-10.44 12.949-21.639 21.238-45.997 24.126-70.763z" fill="#78c2a4"/><g><path d="m7.96 129.232c-13.708-35.385 6.918-85.287 55.837-113.401 2.932-1.685 6.627.306 6.794 3.684.318 6.435 1.522 14.153 4.747 22.261 4.853 12.2 10.795 16.518 17.355 26.543 8.425 12.875 16.038 32.359 14.633 48.322-3.039 34.518-48.328 53.737-51.725 55.128-9.357-3.564-37.199-15.582-47.641-42.537z" fill="#b3e59f"/></g><path d="m92.693 68.32c-6.56-10.026-12.502-14.343-17.355-26.543-3.226-8.11-4.43-15.83-4.747-22.266-.166-3.368-3.854-5.368-6.778-3.688-2.019 1.16-3.972 2.37-5.894 3.602.643 2.399 1.426 4.853 2.42 7.352 4.853 12.2 10.795 16.518 17.355 26.543 8.425 12.875 16.038 32.359 14.633 48.322-1.634 18.56-15.483 32.697-28.467 42.018-14.359 10.307-33.804 10.284-47.941-.325-.1-.075-.199-.15-.299-.225 12.766 17.365 32.416 25.779 39.982 28.661 3.397-1.391 48.686-20.61 51.725-55.128 1.404-15.964-6.209-35.449-14.634-48.323z" fill="#95d6a4"/><path d="m56.74 142.592c2.285-4.18 4.913-8.181 7.874-11.894 4.489-5.628 9.715-10.661 15.534-14.958 3.382-2.497 4.098-7.263 1.601-10.645s-7.262-4.097-10.645-1.601c-5.668 4.186-10.852 8.971-15.478 14.247.375-14.206 2.478-28.346 6.293-42.232 1.113-4.054-1.27-8.242-5.323-9.356-4.056-1.113-8.242 1.27-9.356 5.323-2.726 9.922-4.639 19.966-5.75 30.072l-3.364-3.97c-2.718-3.207-7.522-3.603-10.728-.885-3.207 2.718-3.603 7.521-.885 10.728l13.845 16.336c.036 4.922.251 9.849.67 14.774 2.452 28.893 11.712 57.469 26.777 82.642 2.18 3.642 6.883 4.751 10.44 2.622 3.607-2.159 4.781-6.833 2.622-10.44-12.951-21.639-21.239-45.997-24.127-70.763z" fill="#78c2a4"/><g><g><path d="m438.168 504.389h-364.337c-3.924 0-7.104-3.181-7.104-7.104v-245.187l189.273-109.238 189.272 109.238v245.187c0 3.923-3.18 7.104-7.104 7.104z" fill="#f9f6f6"/><path d="m414.827 234.526c0 132.226-107.19 239.416-239.416 239.416h-108.683v23.342c0 3.923 3.18 7.104 7.104 7.104h364.337c3.924 0 7.104-3.181 7.104-7.104v-245.186z" fill="#efe7e4"/><path d="m50.652 261.376 205.348-118.516 205.348 118.515c4.736 2.733 10.655-.685 10.655-6.153v-29.264c0-2.538-1.354-4.884-3.553-6.153l-212.45-122.614-212.45 122.615c-2.199 1.269-3.553 3.614-3.553 6.153v29.264c0 5.468 5.919 8.886 10.655 6.153z" fill="#b3e59f"/><path d="m468.45 219.806-28.955-16.711c1.303 1.313 2.062 3.104 2.062 5.004v29.264c0 5.468-5.919 8.886-10.655 6.153l30.446 17.86c4.736 2.733 10.655-.685 10.655-6.153v-29.264c0-2.539-1.354-4.884-3.553-6.153z" fill="#95d6a4"/></g><path d="m242.117 504.389h-124.464v-179.763c0-3.924 3.181-7.104 7.104-7.104h110.257c3.923 0 7.104 3.181 7.104 7.104v179.763z" fill="#ce9775"/><path d="m235.013 317.522h-30.446c3.923 0 7.104 3.181 7.104 7.104v179.763h30.446v-179.763c0-3.924-3.18-7.104-7.104-7.104z" fill="#c6855b"/><ellipse cx="256" cy="211.923" fill="#8b818e" rx="37.188" ry="37.188" transform="matrix(.158 -.987 .987 .158 6.213 431.136)"/><path d="m273.561 179.139c2.808 5.231 4.404 11.209 4.404 17.561 0 20.538-16.65 37.188-37.188 37.188-6.352 0-12.331-1.596-17.561-4.404 6.271 11.682 18.598 19.627 32.784 19.627 20.539 0 37.188-16.65 37.188-37.188 0-14.186-7.945-26.513-19.627-32.784z" fill="#756e78"/><g><circle cx="256" cy="93.875" fill="#f7e782" r="93.875"/><path d="m282.021 3.657c22.719 17.133 37.408 44.348 37.408 74.995 0 51.846-42.029 93.875-93.875 93.875-9.029 0-17.758-1.278-26.021-3.657 15.714 11.851 35.269 18.88 56.467 18.88 51.846 0 93.875-42.029 93.875-93.875 0-42.817-28.667-78.936-67.854-90.218z" fill="#f4dd46"/><path d="m270.964 38.544c4.607-.037 7.679 4.189 6.136 8.174-4.101 10.588-8.64 21.043-13.067 31.5-.268.633-.076.897.448 1.2 8.288 4.785 16.558 9.601 24.854 14.372 4.087 2.35 4.738 7.133 1.328 10.368-15.026 14.254-30.076 28.483-45.121 42.718-4.74 4.485-13.292.972-10.646-5.866 1.57-4.056 3.289-8.055 4.96-12.072 2.695-6.48 5.39-12.96 8.121-19.425.279-.66.045-.894-.463-1.187-8.391-4.826-16.866-9.554-25.152-14.557-3.858-2.329-4.313-7.077-1.025-10.193 15.036-14.246 30.115-28.447 45.121-42.724 1.384-1.316 2.902-2.256 4.506-2.308z" fill="#fff"/></g><path d="m257.34 504.389h-154.91v-24.547c0-3.923 3.181-7.104 7.104-7.104h140.702c3.923 0 7.104 3.181 7.104 7.104z" fill="#8b818e"/><path d="m250.236 472.737h-30.446c3.924 0 7.104 3.181 7.104 7.104v24.547h30.446v-24.547c0-3.923-3.18-7.104-7.104-7.104z" fill="#756e78"/><path d="m392.5 398.893h-97.61c-3.924 0-7.104-3.181-7.104-7.104v-67.163c0-3.924 3.181-7.104 7.104-7.104h97.61c3.923 0 7.104 3.181 7.104 7.104v67.163c0 3.923-3.181 7.104-7.104 7.104z" fill="#9dc6fb"/><path d="m392.5 398.893c3.923 0 7.104-3.181 7.104-7.104v-67.163c0-1.276-.341-2.471-.93-3.505-11.3 29.114-28.127 55.466-49.198 77.773h43.024z" fill="#80b4fb"/><path d="m351.306 398.893v-33.074h48.298v-15.223h-48.298v-33.074h-15.223v33.074h-48.297v15.223h48.297v33.074z" fill="#8b818e"/><g><path d="m473.689 512h-435.378c-4.204 0-7.611-3.408-7.611-7.611s3.408-7.612 7.611-7.612h435.378c4.204 0 7.611 3.408 7.611 7.612s-3.408 7.611-7.611 7.611z" fill="#756e78"/></g></g></g></svg>
