<?xml version="1.0" encoding="iso-8859-1"?>
<!-- Generator: Adobe Illustrator 19.0.0, SVG Export Plug-In . SVG Version: 6.00 Build 0)  -->
<svg version="1.1" id="Layer_1" xmlns="http://www.w3.org/2000/svg" xmlns:xlink="http://www.w3.org/1999/xlink" x="0px" y="0px"
	 viewBox="0 0 512 512" style="enable-background:new 0 0 512 512;" xml:space="preserve">
<g>
	<g>
		<path d="M399.483,62.408c-2.979-3.195-8.135-3.376-11.33-0.397s-3.376,8.135-0.397,11.33
			c29.353,31.48,46.292,71.976,48.176,114.783h-60.854c-1.172-48.667-12.982-94.244-33.57-129.086
			c-7.658-12.96-16.23-23.932-25.491-32.777c15.365,5.428,30.002,12.965,43.564,22.515c3.571,2.516,8.655,1.633,11.17-1.938
			s1.633-8.655-1.938-11.17C335.676,12.335,296.666,0,256,0C147.929,0,59.995,87.856,59.861,195.895
			c-0.093,3.191,1.793,6.221,4.697,7.545l154.432,70.196h-99.808c-4.427,0-8.017,3.589-8.017,8.017v222.33
			c0,4.427,3.589,8.017,8.017,8.017h273.637c4.427,0,8.017-3.589,8.017-8.017v-222.33c0-4.427-3.589-8.017-8.017-8.017h-99.809
			l154.433-70.196c1.049-0.478,1.997-1.193,2.748-2.065c1.297-1.504,2.008-3.488,1.949-5.476
			C452.078,146.167,433.385,98.767,399.483,62.408z M327.703,67.196c19.163,32.43,30.191,75.115,31.344,120.929h-52.316
			c-0.449-47.83-4.91-92.592-12.682-126.785c-3.798-16.708-8.194-30.028-13.163-39.935C298.28,29.042,314.385,44.657,327.703,67.196
			z M256,16.033c3.147,0,13.306,8.778,22.416,48.86c7.518,33.078,11.84,76.581,12.286,123.232h-69.402
			c0.446-46.651,4.767-90.154,12.286-123.232C242.694,24.811,252.853,16.033,256,16.033z M231.113,21.406
			c-4.969,9.907-9.367,23.227-13.163,39.935c-7.771,34.193-12.232,78.955-12.682,126.785h-52.316
			c1.153-45.814,12.181-88.499,31.344-120.929C197.614,44.657,213.719,29.042,231.113,21.406z M195.898,26.346
			c-9.229,8.829-17.771,19.773-25.405,32.693c-20.588,34.842-32.399,80.419-33.571,129.086H76.067
			C79.357,113.36,128.445,50.292,195.898,26.346z M104.884,204.159h37.224l53.767,41.36L104.884,204.159z M384.802,289.67v206.296
			H127.198V289.67h95.132v60.392c0,6.271,7.229,10.161,12.463,6.67L256,342.594l21.207,14.138c5.238,3.493,12.463-0.403,12.463-6.67
			V289.67H384.802z M238.363,335.083V289.67h35.274v45.413l-13.19-8.794c-2.664-1.775-6.23-1.776-8.893,0L238.363,335.083z
			 M256,271.54l-87.595-67.381h175.19L256,271.54z M316.124,245.518l53.767-41.36h37.224L316.124,245.518z"/>
	</g>
</g>
<g>
	<g>
		<path d="M210.361,455.559l-25.653-25.653c-3.131-3.131-8.207-3.131-11.337,0l-25.653,25.653c-3.131,3.131-3.131,8.207,0,11.337
			c3.131,3.131,8.207,3.131,11.337,0l11.968-11.968v23.402c0,4.427,3.589,8.017,8.017,8.017s8.017-3.589,8.017-8.017v-23.402
			l11.968,11.968c3.26,3.261,8.765,3.041,11.763-0.46C213.475,463.299,213.281,458.477,210.361,455.559z"/>
	</g>
</g>
<g>
	<g>
		<path d="M364.282,455.559l-25.653-25.653c-3.131-3.131-8.207-3.131-11.337,0l-25.653,25.653c-3.089,3.088-3.089,8.249,0,11.337
			c3.088,3.088,8.249,3.088,11.337,0l11.968-11.968v23.402c0,4.427,3.589,8.017,8.017,8.017s8.017-3.589,8.017-8.017v-23.402
			l11.968,11.968c3.261,3.261,8.765,3.041,11.763-0.46C367.396,463.299,367.201,458.477,364.282,455.559z"/>
	</g>
</g>
<g>
	<g>
		<path d="M324.409,367.699H187.591c-4.427,0-8.017,3.589-8.017,8.017v34.205c0,4.427,3.589,8.017,8.017,8.017h136.818
			c4.427,0,8.017-3.589,8.017-8.017v-34.205C332.426,371.289,328.836,367.699,324.409,367.699z M316.392,401.904H195.607v-18.171
			h120.785V401.904z"/>
	</g>
</g>
<g>
	<g>
		<path d="M324.409,307.841c-4.427,0-8.017,3.589-8.017,8.017v17.102c0,4.427,3.589,8.017,8.017,8.017s8.017-3.589,8.017-8.017
			v-17.102C332.426,311.431,328.836,307.841,324.409,307.841z"/>
	</g>
</g>
<g>
	<g>
		<path d="M350.063,307.841c-4.427,0-8.017,3.589-8.017,8.017v17.102c0,4.427,3.589,8.017,8.017,8.017s8.017-3.589,8.017-8.017
			v-17.102C358.079,311.431,354.49,307.841,350.063,307.841z"/>
	</g>
</g>
<g>
	<g>
		<path d="M187.591,307.841c-4.427,0-8.017,3.589-8.017,8.017v17.102c0,4.427,3.589,8.017,8.017,8.017s8.017-3.589,8.017-8.017
			v-17.102C195.607,311.431,192.018,307.841,187.591,307.841z"/>
	</g>
</g>
<g>
	<g>
		<path d="M161.937,307.841c-4.427,0-8.017,3.589-8.017,8.017v17.102c0,4.427,3.589,8.017,8.017,8.017s8.017-3.589,8.017-8.017
			v-17.102C169.954,311.431,166.365,307.841,161.937,307.841z"/>
	</g>
</g>
<g>
</g>
<g>
</g>
<g>
</g>
<g>
</g>
<g>
</g>
<g>
</g>
<g>
</g>
<g>
</g>
<g>
</g>
<g>
</g>
<g>
</g>
<g>
</g>
<g>
</g>
<g>
</g>
<g>
</g>
</svg>
