<?xml version="1.0" encoding="iso-8859-1"?>
<!-- Generator: Adobe Illustrator 19.0.0, SVG Export Plug-In . SVG Version: 6.00 Build 0)  -->
<svg version="1.1" id="Capa_1" xmlns="http://www.w3.org/2000/svg" xmlns:xlink="http://www.w3.org/1999/xlink" x="0px" y="0px"
	 viewBox="0 0 490 490" style="enable-background:new 0 0 490 490;" xml:space="preserve">
<g>
	<path d="M78.451,362.806l-13.398-15.963l128.156-107.502l13.398,15.963L78.451,362.806z M75.748,393.702l13.398,15.963
		l128.155-107.513l-13.398-15.962L75.748,393.702z"/>
	<path d="M487.658,221.159L310.806,3.884l-0.016,0.013c-5.232-6.141-11.994-3.749-14.773-1.418L3.726,247.678
		c-2.998,2.505-4.332,6.485-3.467,10.302l51.028,223.903c2.281,8.056,10.489,10.454,16.865,5.66l69.87-58.616l41.176,50.584
		c6.53,6.627,12.9,2.992,14.783,1.404l292.292-245.199C490.641,232.062,491.257,225.577,487.658,221.159z M67.827,460.607
		L22.006,259.548L296.343,29.415l45.82,201.049L67.827,460.607z M188.688,458.143l-34.695-42.613l206.451-173.197
		c2.998-2.504,4.333-6.484,3.466-10.302L322.795,51.63l142.21,174.721L188.688,458.143z"/>
</g>
<g>
</g>
<g>
</g>
<g>
</g>
<g>
</g>
<g>
</g>
<g>
</g>
<g>
</g>
<g>
</g>
<g>
</g>
<g>
</g>
<g>
</g>
<g>
</g>
<g>
</g>
<g>
</g>
<g>
</g>
</svg>
