<?xml version="1.0" encoding="iso-8859-1"?>
<!-- Generator: Adobe Illustrator 19.0.0, SVG Export Plug-In . SVG Version: 6.00 Build 0)  -->
<svg version="1.1" id="Layer_1" xmlns="http://www.w3.org/2000/svg" xmlns:xlink="http://www.w3.org/1999/xlink" x="0px" y="0px"
	 viewBox="0 0 512.001 512.001" style="enable-background:new 0 0 512.001 512.001;" xml:space="preserve">
<g>
	<g>
		<path d="M474.014,191.652v-0.001l-52.329-97.3H298.728V41.746c0-23.018-18.727-41.745-41.745-41.745
			c-23.019,0-41.746,18.727-41.746,41.745v52.607H90.314l-52.329,97.3H0v15.209c0,54.812,44.592,99.404,99.404,99.404
			s99.404-44.592,99.404-99.404v-15.209h-37.985l-35.97-66.882h90.386v254.6h-41.601c-28.589,0-51.95,22.758-52.951,51.107h-30.01
			V512H423.29v-81.523h-30.01c-1.002-28.35-24.362-51.107-52.951-51.107h-41.601v-254.6h88.421l-35.97,66.882h-37.985v15.209
			c0,54.812,44.592,99.404,99.404,99.404s99.404-44.592,99.404-99.404v-15.209H474.014z M166.701,222.069
			c-6.945,30.747-34.482,53.778-67.297,53.778s-60.352-23.031-67.297-53.778H166.701z M126.284,191.651H72.523l26.881-49.982
			L126.284,191.651z M245.655,41.746c0-6.246,5.082-11.327,11.328-11.327c6.246,0,11.327,5.082,11.327,11.327v52.607h-22.656V41.746
			z M245.655,124.769h22.656v254.6h-22.656V124.769z M392.873,460.895v20.689h-0.001H121.093v-20.689H392.873z M340.328,409.787
			c11.815,0,21.539,9.12,22.504,20.69H151.133c0.964-11.57,10.689-20.69,22.504-20.69h41.601h83.49H340.328z M412.596,141.669
			l26.881,49.982h-53.761L412.596,141.669z M412.596,275.847c-32.815,0-60.352-23.031-67.297-53.778h134.594
			C472.948,252.816,445.412,275.847,412.596,275.847z"/>
	</g>
</g>
<g>
</g>
<g>
</g>
<g>
</g>
<g>
</g>
<g>
</g>
<g>
</g>
<g>
</g>
<g>
</g>
<g>
</g>
<g>
</g>
<g>
</g>
<g>
</g>
<g>
</g>
<g>
</g>
<g>
</g>
</svg>
