<svg height="512pt" viewBox="0 0 512.02073 512" width="512pt" xmlns="http://www.w3.org/2000/svg"><path d="m512 200.042969v52.964843c-3.796875-1.234374-7.679688-2.292968-11.476562-3.351562-5.648438-1.503906-11.210938-2.828125-16.773438-3.886719-3.96875-.882812-7.855469-1.589843-11.738281-2.117187-3.886719-.707032-7.769531-1.238282-11.652344-1.589844-5.121094-.707031-10.328125-1.148438-15.449219-1.5-1.523437-.175781-3.054687-.265625-4.589844-.265625-1.058593-.085937-2.207031-.085937-3.355468-.175781-.527344 0-1.058594-.089844-1.675782-.089844-1.589843-.085938-3.265624-.175781-4.945312-.175781-3.617188-.085938-7.238281-.085938-10.769531-.085938-2.648438 0-5.382813 0-8.03125.085938-2.121094 0-4.148438.089843-6.269531.175781h-.617188c-1.148438 0-2.382812.089844-3.53125.179688-3.617188.085937-7.238281.261718-10.855469.617187-.859375-.035156-1.71875.027344-2.5625.175781-3 .175782-6.003906.441406-9.09375.707032-2.558593.261718-5.117187.441406-7.679687.792968-3.441406.265625-6.882813.617188-10.328125 1.148438-6.355469.707031-12.796875 1.589844-19.15625 2.558594-4.234375.53125-8.5625 1.238281-12.796875 1.941406h-.265625c-6.445313.972656-12.976563 2.03125-19.421875 3.179687v105.929688l-8.828125 1.589843c-11.738281 2.03125-23.570313 4.148438-35.308594 6.179688l-8.828125 1.589844v-105.933594c-6.445312 1.148438-12.976562 2.207031-19.421875 3.179688-20.566406 3.265624-41.136719 6.003906-61.703125 7.328124-41.042969 3.707032-82.414062-.425781-121.910156-12.183593v-52.964844c39.433594 11.757813 80.75 15.894531 121.734375 12.179687 20.65625-1.324218 41.222656-4.058593 61.878906-7.324218 6.445313-.972656 12.976563-2.03125 19.421875-3.179688v-105.929687l8.828125-1.589844c11.738281-2.03125 23.570313-4.148437 35.308594-6.179687l8.828125-1.589844v105.933594c6.445312-1.148438 12.976562-2.207032 19.421875-3.179688 0-.085938.085937-.085938.175781-.085938l.089844.085938c4.941406-.882812 9.886718-1.589844 14.828125-2.292969 5.210937-.707031 10.417969-1.414062 15.625-2.03125.023437-.023437.054687-.039062.089843-.039062.03125 0 .0625.015625.085938.039062 10.242188-1.238281 20.480469-2.296875 30.808594-3 2.5625-.179687 5.03125-.355469 7.503906-.441406 2.464844-.25 4.941406-.371094 7.414062-.355469.089844-.085937.089844-.085937.179688 0 1.234375-.085937 2.558594-.085937 3.792969-.085937 6.269531-.265625 12.535156-.265625 18.804687-.089844h2.382813c1.324219 0 2.558593.089844 3.882812.175781 2.03125 0 4.0625.089844 6.09375.265625 3.351563.175781 6.707031.441407 10.0625.707031 3.355469.265626 6.707031.617188 10.0625 1.058594s6.710938.792969 10.0625 1.324219c3.003907.441406 6.003907.882813 9.007813 1.5 1.410156.265625 2.910156.53125 4.410156.882813 2.207031.441406 4.503906.882812 6.710938 1.414062 3.355468.703125 6.707031 1.585938 10.0625 2.46875 3.796874 1.0625 7.679687 2.121094 11.476562 3.355469zm0 0" fill="#e6e7e8"/><path d="m512 209.222656v33.988282l-8.828125-1.941407-.265625-.089843c-6.53125-1.765626-12.179688-3.089844-17.476562-4.058594-3.972657-.882813-8.121094-1.679688-12.269532-2.207032-3.710937-.707031-7.859375-1.238281-12.007812-1.679687-4.941406-.617187-10.328125-1.148437-15.625-1.5-1.730469-.1875-3.46875-.277344-5.207032-.265625l-2.738281-.175781c-1.144531-.089844-1.675781-.089844-2.292969-.089844-1.238281-.085937-3.089843-.175781-4.945312-.175781-3.441406-.085938-7.148438-.085938-10.769531-.085938-2.734375 0-5.558594 0-8.296875.085938h-.175782c-1.765624 0-3.707031.089844-5.738281.175781-2.03125.089844-3.53125.089844-4.855469.179687-3.441406.085938-7.238281.261719-11.121093.617188h-.441407c-.773437.027344-1.539062.117188-2.296874.265625-2.558594.085937-5.121094.351563-7.679688.527344l-3.796875.355469c-1.851563.175781-3.617187.351562-5.472656.617187-3.089844.175781-6.796875.617187-10.417969 1.148437-6.089844.703126-12.710938 1.585938-19.15625 2.558594-3.96875.53125-8.207031 1.148438-12.355469 1.855469l-.707031.085937c-6.53125.972657-13.152344 2.03125-19.6875 3.265626l-7.238281 1.238281v114.933593c-11.738281 2.03125-23.570313 4.148438-35.308594 6.179688v-114.847656l-10.417969 1.855468c-6.355468 1.058594-12.800781 2.117188-19.15625 3.089844-24.011718 3.792969-43.429687 6.089844-60.910156 7.238282-10.238281.707031-20.214844 1.058593-29.570312 1.058593-28.039063.296875-55.976563-3.386719-82.980469-10.945312l-8.828125-2.648438v-34.957031l8.828125 2.910156c27.019531 7.109375 54.867187 10.582032 82.804687 10.328125 9.796875 0 20.125-.351562 30.71875-1.058593 18.273438-1.234376 37.605469-3.441407 62.675782-7.414063 6.445312-.972656 13.0625-2.03125 19.597656-3.265625l7.238281-1.238281v-114.933594c11.738281-2.03125 23.570313-4.148437 35.308594-6.179687v114.847656l10.417969-1.855469c4.941406-.882813 10.0625-1.675781 15.09375-2.46875h.089843s5.472657-.882813 5.914063-.882813l5.5625-.882812v-.089844c2.382812-.351562 4.765625-.707031 7.148437-.96875 4.0625-.621094 11.742188-1.589844 11.742188-1.589844l4.238281-.53125c11.472656-1.324218 21.183594-2.292968 30.363281-2.914062 2.5625-.175781 4.855469-.351562 7.242188-.441406 1.199219-.164063 2.40625-.253906 3.617187-.261719l.175782.175781 3.707031-.265625h3.089843l.089844-.089843h.351563c3.710937-.175782 7.0625-.175782 10.328125-.175782 2.738281 0 5.476562 0 8.210937.089844h2.648438c.972656 0 1.941406.085938 2.914062.175781h.96875c1.765625 0 3.53125.089844 5.386719.265625 3.53125.175782 6.796875.441406 10.0625.707032 3.265625.261718 6.445312.527343 9.621094.96875 3.445312.355468 6.621094.796874 9.800781 1.324218 3.175781.53125 5.824219.796875 8.652344 1.414063 1.851562.351562 3 .527343 4.148437.792969l1.410156.355468 5.296876 1.058594c3.355468.703125 6.445312 1.585938 9.535156 2.382812 0 0 3.972656 1.058594 5.207031 1.410157zm0 0" fill="#e64c3c"/><path d="m450.03125 346.847656c-47.050781-4.0625-94.015625 2.382813-141.066406 10.414063v-81.476563c49.3125 18.832032 96.578125 42.644532 141.066406 71.0625zm0 0" fill="#285680"/><path d="m512 323.363281v17.921875c.285156 4.941406-2.382812 9.585938-6.796875 11.828125-3.707031-3.175781-7.257813-.652343-10.964844-3.742187.089844-.792969.105469-7.203125.105469-8.085938v-17.921875c-36.125-32.152343-76.273438-59.480469-119.4375-81.300781 1.238281-.089844 2.472656-.265625 3.707031-.351562 3.089844-.265626 6.09375-.53125 9.09375-.707032.84375-.148437 1.703125-.210937 2.5625-.175781 44.015625 22.058594 84.945313 49.8125 121.730469 82.535156zm0 0" fill="#e6e7e8"/><path d="m494.34375 323.363281v17.921875c0 .882813 0 7.292969-.105469 8.085938-55.261719-45.285156-121.183593-77.472656-176.445312-100.714844 4.238281-.707031 19.421875-1.914062 23.65625-2.445312 6.359375-.96875 12.800781-1.851563 19.15625-2.558594 3.445312-.355469 6.886719-.796875 10.328125-1.148438 1.324218-.175781 2.648437-.351562 3.972656-.441406 43.164062 21.820312 83.3125 49.148438 119.4375 81.300781zm0 0" fill="#e64c3c"/><path d="m494.34375 323.363281v17.921875c0 .882813 0 4.597656-.105469 5.394532-47.65625-40.921876-101.183593-74.460938-158.789062-99.496094 4.234375-.707032 1.765625-.441406 6-.972656 6.359375-.96875 12.800781-1.851563 19.15625-2.558594 3.445312-.355469 6.886719-.796875 10.328125-1.148438 1.324218-.175781 2.648437-.351562 3.972656-.441406 43.164062 21.820312 83.3125 49.148438 119.4375 81.300781zm0 0" fill="#e64c3c"/><path d="m512 253.007812v70.355469c-36.785156-32.722656-77.714844-60.476562-121.730469-82.535156 3.617188-.265625 7.238281-.441406 10.855469-.617187 1.148438-.089844 2.382812-.179688 3.53125-.179688h.617188c2.121093-.085938 4.148437-.175781 6.269531-.175781 2.117187 0 4.148437-.085938 6.265625-.085938 4.148437 0 8.300781 0 12.535156.085938 1.679688 0 3.355469.089843 4.945312.175781.617188 0 1.148438.089844 1.675782.089844 1.148437.089844 2.296875.089844 3.355468.175781 1.535157 0 3.066407.089844 4.589844.265625 5.121094.351562 10.328125.792969 15.449219 1.5 3.882813.441406 7.765625.972656 11.652344 1.589844 3.882812.617187 7.855469 1.324218 11.738281 2.117187 5.5625 1.058594 11.125 2.382813 16.773438 3.886719 3.796874 1.058594 7.679687 2.117188 11.476562 3.351562zm0 0" fill="#285680"/><path d="m52.964844 64.894531v429.460938c-.027344 9.738281-7.914063 17.625-17.65625 17.65625-9.71875-.074219-17.582032-7.9375-17.652344-17.65625v-429.019531c10.976562 6.273437 24.492188 6.105468 35.308594-.441407zm0 0" fill="#f0c419"/><path d="m69.914062 34.96875c0 19.304688-15.652343 34.957031-34.957031 34.957031-19.304687 0-34.957031-15.652343-34.957031-34.957031 0-19.308594 15.652344-34.9570312 34.957031-34.9570312 19.304688.0039062 34.953125 15.6523432 34.957031 34.9570312zm0 0" fill="#cb8252"/><path d="m256 101.792969v81.476562c-49.3125-18.832031-96.578125-42.644531-141.066406-71.058593v-.089844c47.269531 2.585937 94.675781-.886719 141.066406-10.328125zm0 0" fill="#285680"/><path d="m256 183.269531v24.453125c-6.445312 1.148438-12.976562 2.207032-19.421875 3.179688-61.175781-25.6875-122.171875-56.144532-183.347656-110.699219 20.058593 6.257813 40.757812 10.253906 61.703125 11.917969v.089844c44.488281 28.414062 91.753906 52.226562 141.066406 71.058593zm0 0" fill="#e6e7e8"/><path d="m236.578125 210.902344c-20.65625 3.265625-41.222656 6-61.878906 7.324218-44.019531-22.058593-84.945313-49.808593-121.734375-82.535156v-35.578125h.175781l.089844.089844c2.824219 2.558594 5.738281 5.03125 8.5625 7.414063 49.703125 41.742187 105.722656 75.320312 165.957031 99.488281 2.914062 1.324219 5.917969 2.558593 8.828125 3.796875zm0 0" fill="#e6e7e8"/><path d="m232.09375 207.828125c-14.742188 2.121094-33.824219 3.074219-48.550781 4.042969-44.023438-22.058594-84.957031-49.808594-121.75-82.535156v-21.71875c63.265625 41.730468 114.953125 76.554687 170.300781 100.210937zm0 0" fill="#e64c3c"/><path d="m174.699219 218.226562c-40.984375 3.714844-82.300781-.421874-121.734375-12.179687v-70.355469c36.789062 32.726563 77.714844 60.476563 121.734375 82.535156zm0 0" fill="#285680"/><path d="m174.875 271.195312v.085938c-37.347656 25.621094-78.484375 45.21875-121.910156 58.085938v-70.355469c39.496094 11.757812 80.867187 15.890625 121.910156 12.183593zm0 0" fill="#285680"/><path d="m256 260.6875v24.453125c-44.097656 34.789063-91.253906 65.515625-140.886719 91.808594h-.089843c-21.015626-1.648438-41.773438-5.675781-61.882813-12.007813 2.121094-.527344 4.328125-1.144531 6.445313-1.851562 15.289062 3.886718 30.882812 6.457031 46.609374 7.679687l-2.472656-5.242187c46.964844-23.128906 71.25-66.296875 118.210938-101.519532l25.238281-1.90625c2.914063-.351562 5.914063-.882812 8.828125-1.414062zm0 0" fill="#e6e7e8"/><path d="m242.757812 274.953125c-41.867187 36.015625-87.148437 67.863281-135.195312 95.09375l-1.277344.722656h-.089844c-15.726562-1.222656-31.320312-3.792969-46.609374-7.679687 59.058593-16.949219 100.945312-52.886719 160-96.222656 3.53125-.527344 32.882812-3.148438 36.414062-3.855469zm0 0" fill="#e64c3c"/><path d="m256 285.140625v81.480469c-46.328125 9.4375-93.675781 12.910156-140.886719 10.328125 49.632813-26.292969 96.789063-57.019531 140.886719-91.808594zm0 0" fill="#285680"/><path d="m228.960938 261.800781c-61.167969 44.933594-114.644532 87.164063-175.820313 103.140625h-.175781v-35.574218c43.425781-12.867188 84.5625-32.464844 121.910156-58.085938v-.085938c18.179688-2.1875 36.234375-5.324218 54.085938-9.394531zm0 0" fill="#e6e7e8"/><path d="m512 129.6875v70.355469c-3.796875-1.234375-7.679688-2.292969-11.476562-3.355469-3.355469-.882812-6.707032-1.765625-10.0625-2.46875-2.296876-.53125-4.503907-1.0625-6.710938-1.414062-1.5-.351563-3-.617188-4.410156-.882813-3.003906-.617187-6.003906-1.058594-9.007813-1.5-3.351562-.53125-6.707031-1.058594-10.0625-1.324219-3.332031-.527344-6.691406-.882812-10.0625-1.058594-3.355469-.355468-6.710937-.617187-10.0625-.707031-2.03125-.175781-4.0625-.265625-6.09375-.265625-1.324219-.085937-2.558593-.175781-3.882812-.175781h-2.382813c-6.269531-.175781-12.535156-.175781-18.804687.089844-1.234375 0-2.558594 0-3.792969.085937-.089844-.085937-.089844-.085937-.179688 0-2.472656-.015625-4.949218.105469-7.414062.355469-2.507812.011719-5.011719.15625-7.503906.441406v-.089843c37.347656-25.617188 78.484375-45.21875 121.910156-58.085938zm0 0" fill="#285680"/><path d="m512 111.769531v17.917969c-43.425781 12.867188-84.5625 32.46875-121.910156 58.085938v.089843c-10.238282.617188-20.566406 1.675781-30.808594 3-.023438-.023437-.054688-.039062-.085938-.039062-.035156 0-.066406.015625-.089843.039062-5.207031.527344-10.414063 1.234375-15.625 2.03125-4.941407.703125-9.886719 1.410157-14.828125 2.292969l-.089844-.085938c58.878906-43.34375 117.761719-82.097656 176.640625-99.222656 4.164063 4.265625 6.585937 9.929688 6.796875 15.890625zm0 0" fill="#e6e7e8"/><path d="m505.203125 95.878906c-58.878906 17.125-117.761719 55.878906-176.640625 99.222656-.089844 0-.175781 0-.175781.085938-3.53125.53125-7.0625 1.058594-10.59375 1.765625-2.914063.355469-5.914063.882813-8.828125 1.414063v-24.453126c47.050781-35.222656 94.015625-68.765624 141.066406-91.894531 14.933594 1.222657 29.75 3.613281 44.3125 7.148438 3.238281.863281 6.230469 2.464843 8.742188 4.679687h.085937c.707031.707032 1.414063 1.324219 2.03125 2.03125zm0 0" fill="#e6e7e8"/><path d="m309.699219 189.433594c30.164062-24.824219 102.109375-79.609375 149.160156-102.738282 12.738281 1.03125 25.355469 3.226563 37.691406 6.5625.707031.695313-.617187-.714843 0 0-55.445312 28.960938-82.90625 47.667969-141.796875 91.027344zm0 0" fill="#e64c3c"/><path d="m450.03125 82.019531c-47.050781 23.128907-94.015625 56.671875-141.066406 91.894531v-81.480468c47.050781-8.03125 94.015625-14.476563 141.066406-10.414063zm0 0" fill="#285680"/><path d="m505.203125 353.113281c-3.402344 1.5625-7.246094 1.875-10.859375.882813-14.5625-3.535156-29.378906-5.925782-44.3125-7.148438-44.488281-28.417968-91.753906-52.230468-141.066406-71.0625v-24.453125c6.445312-1.148437 4.414062-2.074219 10.851562-3.046875l2.207032-.546875c64.640624 28.492188 126.050781 63.820313 183.179687 105.375zm0 0" fill="#e6e7e8"/></svg>