<?xml version="1.0" encoding="utf-8"?>
<!-- Generator: Adobe Illustrator 25.0.1, SVG Export Plug-In . SVG Version: 6.00 Build 0)  -->
<svg version="1.1" id="Layer_1" xmlns="http://www.w3.org/2000/svg" xmlns:xlink="http://www.w3.org/1999/xlink" x="0px" y="0px"
	 viewBox="0 0 128 128" style="enable-background:new 0 0 128 128;" xml:space="preserve">
<style type="text/css">
	.st0{fill:#FFFFFF;}
</style>
<g>
	<path class="st0" d="M13.2,89.2l101.1-56.3l1.4,5.3L14.9,93.7L13.2,89.2z"/>
	<path class="st0" d="M13.7,38.5l100.2,56l0.8-5.1L12.9,32.7L13.7,38.5z"/>
	<path class="st0" d="M66.8,12.2l-5.5,0.7v103.9l5.1-0.7L66.8,12.2z"/>
	<path class="st0" d="M90.5,64.4c-0.1-6.2,2.2-13.5,1-15.3c-1.1-1.8-9.4-4.4-14.2-7c-4-2.2-10.4-9.5-13.4-9.3
		c-3.5,0.3-7.2,6.2-13,9.4S38.3,46,36.8,48.8c-1.3,2.4,0.8,9.3,1,14.5c0.2,7.7-2.1,14.6-1,16.3c1.1,1.7,8.3,2.7,13.5,6.1
		c5.8,3.7,11,9.3,13.7,9.3c2.7,0,8.4-6.8,14.1-9.6c4.4-2.1,11.4-5.2,13.2-6.9C93.1,76.8,90.6,71.3,90.5,64.4z M86.2,75.5
		c-1,1.1-7.1,4.4-11.1,6.5c-3.5,1.8-8.6,6.6-11.4,6.8c-3,0.1-7.3-4.3-10.6-6.3c-3.8-2.4-11-4.5-11.7-6.2c-0.8-2,0.7-9.4,0.7-13.9
		c0-3.8-1.3-9.9-0.4-11.4c0.8-1.5,7.6-3.2,11.7-5.5c4.9-2.7,7.9-6.3,10.6-6.3c2.5,0,6.8,4.1,10.7,6.3c4.5,2.6,10.6,5.2,11.5,6.9
		c1,1.7-0.1,7.7,0,11.7C86.4,68.4,87.2,74.4,86.2,75.5z"/>
	<path class="st0" d="M112.4,62.2c1-13.5,6.5-22.7,7.3-24.2s3.1-3.8,1.7-6.3c-1.2-2.4-4.5-1.6-7.5-1.6c-2.1,0-17.3-1.2-25.6-4.9
		c-8.7-3.9-17.5-12-19-14.9s-3-5.6-5.3-5.8c-2.7-0.2-4.5,3.8-5.6,6.2s-8.2,9.4-16.6,13.7c-9,4.5-24.1,6.3-27.3,6.5
		c-2.7,0.1-6.3-0.4-7.5,1.8c-1,1.9,1.4,4.7,2.8,7c1.4,2.4,6.3,13.2,6.1,24.6c-0.3,13.2-5.9,22.4-7,24.2s-4,4.6-2.4,7.3
		c1.4,2.4,4.5,1.7,7,1.6c3.1-0.2,17.9,0.8,26.5,5.1c7.1,3.5,14.5,10.7,17.5,14.1s4,6.4,6.8,6.3c3.3-0.1,4.2-3.8,6-6.3
		c1.2-1.7,9.2-10.7,18.8-14.9c7.1-3.1,22.2-4.3,23.8-4.4c3.2-0.1,7.2,0.7,8.3-1.6s-1.7-5.6-2.5-7C116.1,84.7,111.6,74,112.4,62.2z
		 M110.4,90c-2.5,3.8-14.8,2.5-24.5,7c-9.8,4.6-16.9,15.3-21.8,15.5C59.9,112.7,52,101.4,42,97.2c-10.6-4.5-24.4-4.1-25.9-7.2
		s5.6-13.5,5.4-26C21.2,52,15,40.4,17,37.4c2-3,18-3.5,26.6-7.5c7.1-3.3,17.5-14.1,20.5-14.1c3.7,0,12.3,9.2,20,13.3
		c7.7,4.1,24.3,6.2,26.2,9.1c1.8,3-4.1,15.2-3.9,25.3C106.5,76.7,112.4,87.1,110.4,90z"/>
</g>
</svg>
